<?xml version="1.0" encoding="UTF-8" standalone="no"?><!DOCTYPE svg PUBLIC "-//W3C//DTD SVG 1.1//EN" "http://www.w3.org/Graphics/SVG/1.1/DTD/svg11.dtd"><svg width="100%" height="100%" viewBox="0 0 100 100" version="1.1" xmlns="http://www.w3.org/2000/svg" xmlns:xlink="http://www.w3.org/1999/xlink" xml:space="preserve" xmlns:serif="http://www.serif.com/" style="fill-rule:evenodd;clip-rule:evenodd;stroke-linejoin:round;stroke-miterlimit:2;"><path id="path849" d="M43.241,97.353c0.244,-0.098 0.537,-0.086 0.649,0.026c0.113,0.113 -0.087,0.193 -0.444,0.178c-0.395,-0.016 -0.475,-0.096 -0.205,-0.204l-0,-0Zm6.924,-0.012c0.512,-0.077 1.351,-0.077 1.863,0c0.513,0.078 0.093,0.142 -0.931,0.142c-1.025,-0 -1.444,-0.064 -0.932,-0.142Zm-8.978,-0.32c0.233,-0.094 0.614,-0.094 0.847,-0c0.233,0.094 0.042,0.171 -0.424,0.171c-0.465,-0 -0.656,-0.077 -0.423,-0.171Zm-1.673,-0.346c0.245,-0.098 0.537,-0.086 0.65,0.027c0.112,0.112 -0.088,0.192 -0.445,0.178c-0.395,-0.017 -0.475,-0.097 -0.205,-0.205l0,0Zm4.726,-0.008c0.421,-0.081 1.031,-0.078 1.355,0.007c0.324,0.085 -0.021,0.151 -0.766,0.147c-0.745,-0.004 -1.01,-0.073 -0.589,-0.154l0,-0Zm3.384,-0.006c0.606,-0.075 1.597,-0.075 2.202,0c0.606,0.075 0.11,0.137 -1.101,0.137c-1.211,-0 -1.707,-0.062 -1.101,-0.137Zm-9.571,-0.432c0.373,-0.161 0.983,-0.287 1.355,-0.282c0.545,0.008 0.512,0.064 -0.169,0.282c-1.158,0.371 -2.049,0.371 -1.186,-0Zm2.971,0.104c0.33,-0.086 0.787,-0.081 1.016,0.012c0.23,0.093 -0.04,0.163 -0.599,0.156c-0.559,-0.007 -0.747,-0.082 -0.417,-0.168l0,-0Zm-7.326,-1c-1.464,-0.462 -2.601,-0.9 -2.527,-0.974c0.073,-0.073 1.335,0.237 2.804,0.69c1.469,0.454 3.063,0.75 3.544,0.658c0.751,-0.143 0.778,-0.122 0.195,0.154c-0.922,0.435 -0.991,0.426 -4.016,-0.528Zm7.743,0.496c-1.118,-0.175 -2.653,-0.614 -3.41,-0.976c-0.758,-0.361 -1.672,-0.646 -2.033,-0.633c-0.633,0.023 -0.632,0.034 0.022,0.326c0.442,0.198 0.03,0.232 -1.185,0.099c-2.04,-0.224 -4.931,-1.23 -5.811,-2.023c-0.309,-0.278 -0.646,-0.363 -0.753,-0.189c-0.107,0.172 0.414,0.587 1.156,0.922c0.742,0.334 1.28,0.677 1.196,0.761c-0.244,0.244 -6.181,-2.994 -9.444,-5.151c-1.641,-1.084 -4.286,-3.286 -5.879,-4.892c-3.147,-3.175 -5.961,-6.618 -5.657,-6.921c0.255,-0.255 -0.725,-1.631 -1.01,-1.418c-0.123,0.092 -0.162,0.079 -0.086,-0.028c0.077,-0.107 -0.833,-2.203 -2.021,-4.658c-1.537,-3.176 -2.526,-5.832 -3.427,-9.207c-1.239,-4.635 -1.267,-4.878 -1.257,-10.672c0.008,-4.022 0.193,-6.933 0.577,-9.053c4.951,-27.334 31.783,-44.809 58.841,-38.32c6.371,1.528 13.8,5.178 19.066,9.368c9.455,7.524 15.726,18.782 17.358,31.162c0.637,4.834 0.634,7.041 -0.014,11.543c-1.053,7.313 -3.992,14.949 -8.297,21.557c-1.868,2.868 -8.232,9.499 -8.786,9.157c-0.18,-0.112 -0.982,0.272 -1.781,0.853c-0.799,0.581 -1.987,1.287 -2.639,1.57c-1.359,0.587 -4.174,0.897 -3.883,0.426c0.106,-0.171 1.594,-1.353 3.308,-2.627c1.714,-1.274 3.345,-2.603 3.624,-2.953c0.28,-0.351 -0.09,-0.187 -0.82,0.364c-0.731,0.551 -1.722,1.03 -2.202,1.063c-0.481,0.034 -1.594,0.15 -2.473,0.257c-1.425,0.174 -1.576,0.13 -1.384,-0.4c0.119,-0.328 0.639,-0.977 1.156,-1.443c1.988,-1.792 7.246,-7.73 8.85,-9.994c4.85,-6.85 7.719,-16.066 7.712,-24.775c-0.003,-3.849 -0.441,-6.577 -1.735,-10.798c-3.285,-10.725 -10.93,-19.383 -21.72,-24.598c-1.539,-0.744 -2.418,-1.259 -1.952,-1.144c1.338,0.328 8.957,4.15 10.796,5.415c0.916,0.63 1.751,1.061 1.855,0.957c0.104,-0.104 1.874,1.495 3.933,3.554c2.059,2.059 3.744,3.686 3.744,3.614c-0,-0.471 -3.855,-4.608 -6.002,-6.44c-3.573,-3.048 -5.319,-4.121 -10.599,-6.511c-6.796,-3.077 -10.092,-3.798 -17.404,-3.807c-9.975,-0.014 -18.269,2.258 -25.114,6.879c-1.118,0.755 -1.824,1.115 -1.568,0.8c1.047,-1.286 -0.307,-0.421 -3.056,1.952c-5.337,4.61 -10.264,11.789 -12.481,18.185c-1.06,3.058 -1.332,2.989 -0.519,-0.132c0.507,-1.945 2.772,-6.928 4.426,-9.735c0.673,-1.142 0.722,-1.327 0.197,-0.736c-1.137,1.278 -3.316,5.452 -4.639,8.888c-0.677,1.759 -1.351,3.35 -1.496,3.537c-0.247,0.315 -0.737,2.983 -1.73,9.408c-0.37,2.392 -0.315,4.836 0.198,8.886c0.136,1.08 0.071,0.977 -0.323,-0.508c-0.272,-1.025 -0.511,-2.397 -0.532,-3.049c-0.021,-0.652 -0.183,-1.491 -0.359,-1.863c-0.218,-0.462 -0.272,0.242 -0.167,2.202c0.631,11.825 6.985,23.962 16.566,31.644c1.605,1.286 2.843,2.46 2.751,2.608c-0.091,0.147 0.351,0.619 0.983,1.049c0.632,0.429 1.157,0.914 1.167,1.077c0.021,0.356 1.796,1.566 2.276,1.552c0.186,-0.005 -0.043,-0.243 -0.509,-0.529c-1.121,-0.688 -0.42,-0.437 3.05,1.091c1.583,0.698 3.36,1.28 3.947,1.292c0.587,0.013 0.993,0.144 0.903,0.291c-0.09,0.148 0.206,0.175 0.657,0.062c0.452,-0.114 2.028,0.021 3.501,0.298c1.474,0.278 3.976,0.598 5.56,0.711c1.583,0.114 3.87,0.307 5.081,0.43l2.203,0.222l-1.694,0.246c-2.304,0.334 -6.346,0.29 -8.809,-0.095l0,-0Zm-13.213,-3.666c0.115,-0.186 0.057,-0.338 -0.129,-0.338c-0.187,-0 -0.433,0.152 -0.548,0.338c-0.116,0.187 -0.057,0.339 0.129,0.339c0.186,0 0.433,-0.152 0.548,-0.339Zm56.07,-9.735c2.693,-2.874 4.157,-4.701 5.136,-6.411c0.98,-1.71 0.691,-1.429 -1.261,1.228c-0.885,1.205 -3.072,3.71 -4.86,5.568c-1.787,1.858 -2.792,3.06 -2.233,2.672c0.559,-0.389 2.007,-1.764 3.218,-3.057Zm-14.229,-74.454c-0.839,-0.449 -1.753,-0.811 -2.033,-0.804c-0.536,0.014 2.637,1.605 3.219,1.615c0.186,0.003 -0.348,-0.362 -1.186,-0.811Zm-42.688,82.665c-0.999,-0.571 -1.477,-0.641 -1.188,-0.173c0.121,0.195 -0.023,0.246 -0.347,0.122c-0.357,-0.137 -0.423,-0.294 -0.185,-0.441c0.213,-0.132 -0.215,-0.557 -1.01,-1.003c-0.759,-0.427 -1.316,-0.84 -1.238,-0.918c0.131,-0.131 4.438,2.261 4.896,2.719c0.326,0.327 -0.022,0.212 -0.928,-0.306Zm-0.189,-1.374c-0.62,-0.497 -0.609,-0.504 0.189,-0.124c1.037,0.494 1.229,0.651 0.799,0.651c-0.182,-0 -0.626,-0.237 -0.988,-0.527Zm46.942,-2.307c0,-0.093 0.458,-0.495 1.017,-0.893c0.559,-0.398 1.016,-0.647 1.016,-0.554c0,0.093 -0.457,0.495 -1.016,0.893c-0.559,0.398 -1.017,0.647 -1.017,0.554Zm-53.745,-2.023c-4.155,-3.073 -8.434,-8.369 -11.335,-14.031c-1.693,-3.304 -3.163,-7.269 -2.94,-7.936c0.072,-0.217 0.486,0.66 0.919,1.949c1.082,3.223 3.685,8.306 5.71,11.154c1.793,2.522 5.598,6.596 8.334,8.923c2.148,1.828 1.825,1.801 -0.688,-0.059l-0,0Zm-12.97,-44.465c0.017,-0.395 0.097,-0.475 0.205,-0.205c0.098,0.244 0.086,0.537 -0.027,0.649c-0.112,0.113 -0.192,-0.087 -0.178,-0.444l0,-0Z" style="fill:#cb202c;fill-rule:nonzero;"/></svg>